<mxfile host="app.diagrams.net" modified="2024-04-21T17:03:12.342Z" agent="Mozilla/5.0 (X11; Linux x86_64) AppleWebKit/537.36 (KHTML, like Gecko) Chrome/123.0.0.0 Safari/537.36" version="24.2.5" etag="0j41BLxeJL6U52qYrYVG" type="github">
  <diagram name="Page-1" id="FcThXh01GsarsOsVShvs">
    <mxGraphModel>
      <root>
        <mxCell id="0" />
        <mxCell id="1" parent="0" />
      </root>
    </mxGraphModel>
  </diagram>
</mxfile>
